CATALOG 0000000000000
FILE "Die Hard Arcade v1.001 (1996)(Sega)(NTSC)(US)(Track 01 of 43)[!].iso" BINARY
  TRACK 01 MODE1/2048
    INDEX 01 00:00:00
FILE "Die Hard Arcade v1.001 (1996)(Sega)(NTSC)(US)(Track 02 of 43)[!].wav" WAVE
  TRACK 02 AUDIO
    PREGAP 00:02:00
    INDEX 01 00:00:00
FILE "Die Hard Arcade v1.001 (1996)(Sega)(NTSC)(US)(Track 03 of 43)[!].wav" WAVE
  TRACK 03 AUDIO
    INDEX 00 00:00:00
    INDEX 01 00:02:00
FILE "Die Hard Arcade v1.001 (1996)(Sega)(NTSC)(US)(Track 04 of 43)[!].wav" WAVE
  TRACK 04 AUDIO
    INDEX 00 00:00:00
    INDEX 01 00:02:00
FILE "Die Hard Arcade v1.001 (1996)(Sega)(NTSC)(US)(Track 05 of 43)[!].wav" WAVE
  TRACK 05 AUDIO
    INDEX 00 00:00:00
    INDEX 01 00:02:02
FILE "Die Hard Arcade v1.001 (1996)(Sega)(NTSC)(US)(Track 06 of 43)[!].wav" WAVE
  TRACK 06 AUDIO
    INDEX 00 00:00:00
    INDEX 01 00:02:00
FILE "Die Hard Arcade v1.001 (1996)(Sega)(NTSC)(US)(Track 07 of 43)[!].wav" WAVE
  TRACK 07 AUDIO
    INDEX 00 00:00:00
    INDEX 01 00:02:00
FILE "Die Hard Arcade v1.001 (1996)(Sega)(NTSC)(US)(Track 08 of 43)[!].wav" WAVE
  TRACK 08 AUDIO
    INDEX 00 00:00:00
    INDEX 01 00:02:00
FILE "Die Hard Arcade v1.001 (1996)(Sega)(NTSC)(US)(Track 09 of 43)[!].wav" WAVE
  TRACK 09 AUDIO
    INDEX 00 00:00:00
    INDEX 01 00:02:00
FILE "Die Hard Arcade v1.001 (1996)(Sega)(NTSC)(US)(Track 10 of 43)[!].wav" WAVE
  TRACK 10 AUDIO
    INDEX 00 00:00:00
    INDEX 01 00:02:00
FILE "Die Hard Arcade v1.001 (1996)(Sega)(NTSC)(US)(Track 11 of 43)[!].wav" WAVE
  TRACK 11 AUDIO
    INDEX 00 00:00:00
    INDEX 01 00:02:02
FILE "Die Hard Arcade v1.001 (1996)(Sega)(NTSC)(US)(Track 12 of 43)[!].wav" WAVE
  TRACK 12 AUDIO
    INDEX 00 00:00:00
    INDEX 01 00:02:00
FILE "Die Hard Arcade v1.001 (1996)(Sega)(NTSC)(US)(Track 13 of 43)[!].wav" WAVE
  TRACK 13 AUDIO
    INDEX 00 00:00:00
    INDEX 01 00:02:00
FILE "Die Hard Arcade v1.001 (1996)(Sega)(NTSC)(US)(Track 14 of 43)[!].wav" WAVE
  TRACK 14 AUDIO
    INDEX 00 00:00:00
    INDEX 01 00:02:00
FILE "Die Hard Arcade v1.001 (1996)(Sega)(NTSC)(US)(Track 15 of 43)[!].wav" WAVE
  TRACK 15 AUDIO
    INDEX 00 00:00:00
    INDEX 01 00:02:02
FILE "Die Hard Arcade v1.001 (1996)(Sega)(NTSC)(US)(Track 16 of 43)[!].wav" WAVE
  TRACK 16 AUDIO
    INDEX 00 00:00:00
    INDEX 01 00:02:02
FILE "Die Hard Arcade v1.001 (1996)(Sega)(NTSC)(US)(Track 17 of 43)[!].wav" WAVE
  TRACK 17 AUDIO
    INDEX 00 00:00:00
    INDEX 01 00:02:00
FILE "Die Hard Arcade v1.001 (1996)(Sega)(NTSC)(US)(Track 18 of 43)[!].wav" WAVE
  TRACK 18 AUDIO
    INDEX 00 00:00:00
    INDEX 01 00:02:02
FILE "Die Hard Arcade v1.001 (1996)(Sega)(NTSC)(US)(Track 19 of 43)[!].wav" WAVE
  TRACK 19 AUDIO
    INDEX 00 00:00:00
    INDEX 01 00:02:00
FILE "Die Hard Arcade v1.001 (1996)(Sega)(NTSC)(US)(Track 20 of 43)[!].wav" WAVE
  TRACK 20 AUDIO
    INDEX 00 00:00:00
    INDEX 01 00:02:00
FILE "Die Hard Arcade v1.001 (1996)(Sega)(NTSC)(US)(Track 21 of 43)[!].wav" WAVE
  TRACK 21 AUDIO
    INDEX 00 00:00:00
    INDEX 01 00:02:00
FILE "Die Hard Arcade v1.001 (1996)(Sega)(NTSC)(US)(Track 22 of 43)[!].wav" WAVE
  TRACK 22 AUDIO
    INDEX 00 00:00:00
    INDEX 01 00:02:00
FILE "Die Hard Arcade v1.001 (1996)(Sega)(NTSC)(US)(Track 23 of 43)[!].wav" WAVE
  TRACK 23 AUDIO
    INDEX 00 00:00:00
    INDEX 01 00:02:00
FILE "Die Hard Arcade v1.001 (1996)(Sega)(NTSC)(US)(Track 24 of 43)[!].wav" WAVE
  TRACK 24 AUDIO
    INDEX 00 00:00:00
    INDEX 01 00:02:00
FILE "Die Hard Arcade v1.001 (1996)(Sega)(NTSC)(US)(Track 25 of 43)[!].wav" WAVE
  TRACK 25 AUDIO
    INDEX 00 00:00:00
    INDEX 01 00:02:02
FILE "Die Hard Arcade v1.001 (1996)(Sega)(NTSC)(US)(Track 26 of 43)[!].wav" WAVE
  TRACK 26 AUDIO
    INDEX 00 00:00:00
    INDEX 01 00:02:00
FILE "Die Hard Arcade v1.001 (1996)(Sega)(NTSC)(US)(Track 27 of 43)[!].wav" WAVE
  TRACK 27 AUDIO
    INDEX 00 00:00:00
    INDEX 01 00:02:00
FILE "Die Hard Arcade v1.001 (1996)(Sega)(NTSC)(US)(Track 28 of 43)[!].wav" WAVE
  TRACK 28 AUDIO
    INDEX 00 00:00:00
    INDEX 01 00:02:00
FILE "Die Hard Arcade v1.001 (1996)(Sega)(NTSC)(US)(Track 29 of 43)[!].wav" WAVE
  TRACK 29 AUDIO
    INDEX 00 00:00:00
    INDEX 01 00:02:02
FILE "Die Hard Arcade v1.001 (1996)(Sega)(NTSC)(US)(Track 30 of 43)[!].wav" WAVE
  TRACK 30 AUDIO
    INDEX 00 00:00:00
    INDEX 01 00:02:02
FILE "Die Hard Arcade v1.001 (1996)(Sega)(NTSC)(US)(Track 31 of 43)[!].wav" WAVE
  TRACK 31 AUDIO
    INDEX 00 00:00:00
    INDEX 01 00:02:00
FILE "Die Hard Arcade v1.001 (1996)(Sega)(NTSC)(US)(Track 32 of 43)[!].wav" WAVE
  TRACK 32 AUDIO
    INDEX 00 00:00:00
    INDEX 01 00:02:00
FILE "Die Hard Arcade v1.001 (1996)(Sega)(NTSC)(US)(Track 33 of 43)[!].wav" WAVE
  TRACK 33 AUDIO
    INDEX 00 00:00:00
    INDEX 01 00:02:02
FILE "Die Hard Arcade v1.001 (1996)(Sega)(NTSC)(US)(Track 34 of 43)[!].wav" WAVE
  TRACK 34 AUDIO
    INDEX 00 00:00:00
    INDEX 01 00:02:00
FILE "Die Hard Arcade v1.001 (1996)(Sega)(NTSC)(US)(Track 35 of 43)[!].wav" WAVE
  TRACK 35 AUDIO
    INDEX 00 00:00:00
    INDEX 01 00:02:00
FILE "Die Hard Arcade v1.001 (1996)(Sega)(NTSC)(US)(Track 36 of 43)[!].wav" WAVE
  TRACK 36 AUDIO
    INDEX 00 00:00:00
    INDEX 01 00:02:02
FILE "Die Hard Arcade v1.001 (1996)(Sega)(NTSC)(US)(Track 37 of 43)[!].wav" WAVE
  TRACK 37 AUDIO
    INDEX 00 00:00:00
    INDEX 01 00:02:00
FILE "Die Hard Arcade v1.001 (1996)(Sega)(NTSC)(US)(Track 38 of 43)[!].wav" WAVE
  TRACK 38 AUDIO
    INDEX 00 00:00:00
    INDEX 01 00:02:00
FILE "Die Hard Arcade v1.001 (1996)(Sega)(NTSC)(US)(Track 39 of 43)[!].wav" WAVE
  TRACK 39 AUDIO
    INDEX 00 00:00:00
    INDEX 01 00:02:00
FILE "Die Hard Arcade v1.001 (1996)(Sega)(NTSC)(US)(Track 40 of 43)[!].wav" WAVE
  TRACK 40 AUDIO
    INDEX 00 00:00:00
    INDEX 01 00:02:02
FILE "Die Hard Arcade v1.001 (1996)(Sega)(NTSC)(US)(Track 41 of 43)[!].wav" WAVE
  TRACK 41 AUDIO
    INDEX 00 00:00:00
    INDEX 01 00:02:00
FILE "Die Hard Arcade v1.001 (1996)(Sega)(NTSC)(US)(Track 42 of 43)[!].wav" WAVE
  TRACK 42 AUDIO
    INDEX 00 00:00:00
    INDEX 01 00:02:02
FILE "Die Hard Arcade v1.001 (1996)(Sega)(NTSC)(US)(Track 43 of 43)[!].wav" WAVE
  TRACK 43 AUDIO
    INDEX 00 00:00:00
    INDEX 01 00:02:00
